ISO-10303-21;
HEADER;
/* Generated by software containing ST-Developer
 * from STEP Tools, Inc. (www.steptools.com) 
 */

FILE_DESCRIPTION(
/* description */ (''),
/* implementation_level */ '2;1');

FILE_NAME(
/* name */ 'Slipring mount v1.1.1.step',
/* time_stamp */ '2026-01-13T14:57:04+01:00',
/* author */ (''),
/* organization */ (''),
/* preprocessor_version */ 'ST-DEVELOPER v20.1',
/* originating_system */ 'Autodesk Translation Framework v14.21.0.0',
/* authorisation */ '');

FILE_SCHEMA (('AUTOMOTIVE_DESIGN { 1 0 10303 214 3 1 1 }'));
ENDSEC;

DATA;
#10=MECHANICAL_DESIGN_GEOMETRIC_PRESENTATION_REPRESENTATION('',(#13),#499);
#11=SHAPE_REPRESENTATION_RELATIONSHIP('SRR','None',#506,#12);
#12=ADVANCED_BREP_SHAPE_REPRESENTATION('',(#14),#498);
#13=STYLED_ITEM('',(#515),#14);
#14=MANIFOLD_SOLID_BREP('Body1',#265);
#15=FACE_BOUND('',#87,.T.);
#16=FACE_BOUND('',#93,.T.);
#17=PLANE('',#303);
#18=PLANE('',#307);
#19=PLANE('',#308);
#20=PLANE('',#311);
#21=PLANE('',#312);
#22=LINE('',#428,#38);
#23=LINE('',#431,#39);
#24=LINE('',#434,#40);
#25=LINE('',#437,#41);
#26=LINE('',#440,#42);
#27=LINE('',#465,#43);
#28=LINE('',#468,#44);
#29=LINE('',#471,#45);
#30=LINE('',#474,#46);
#31=LINE('',#476,#47);
#32=LINE('',#481,#48);
#33=LINE('',#484,#49);
#34=LINE('',#486,#50);
#35=LINE('',#488,#51);
#36=LINE('',#492,#52);
#37=LINE('',#494,#53);
#38=VECTOR('',#333,10.);
#39=VECTOR('',#336,10.);
#40=VECTOR('',#339,10.);
#41=VECTOR('',#342,10.);
#42=VECTOR('',#345,8.);
#43=VECTOR('',#362,10.);
#44=VECTOR('',#365,10.);
#45=VECTOR('',#368,10.);
#46=VECTOR('',#371,10.);
#47=VECTOR('',#374,10.);
#48=VECTOR('',#379,10.);
#49=VECTOR('',#382,10.);
#50=VECTOR('',#385,10.);
#51=VECTOR('',#388,10.);
#52=VECTOR('',#393,2.5);
#53=VECTOR('',#396,10.);
#54=CYLINDRICAL_SURFACE('',#287,1.);
#55=CYLINDRICAL_SURFACE('',#289,8.);
#56=CYLINDRICAL_SURFACE('',#291,8.);
#57=CYLINDRICAL_SURFACE('',#299,1.);
#58=CYLINDRICAL_SURFACE('',#301,1.);
#59=CYLINDRICAL_SURFACE('',#305,1.);
#60=CYLINDRICAL_SURFACE('',#309,2.5);
#61=FACE_OUTER_BOUND('',#77,.T.);
#62=FACE_OUTER_BOUND('',#78,.T.);
#63=FACE_OUTER_BOUND('',#79,.T.);
#64=FACE_OUTER_BOUND('',#80,.T.);
#65=FACE_OUTER_BOUND('',#81,.T.);
#66=FACE_OUTER_BOUND('',#82,.T.);
#67=FACE_OUTER_BOUND('',#83,.T.);
#68=FACE_OUTER_BOUND('',#84,.T.);
#69=FACE_OUTER_BOUND('',#85,.T.);
#70=FACE_OUTER_BOUND('',#86,.T.);
#71=FACE_OUTER_BOUND('',#88,.T.);
#72=FACE_OUTER_BOUND('',#89,.T.);
#73=FACE_OUTER_BOUND('',#90,.T.);
#74=FACE_OUTER_BOUND('',#91,.T.);
#75=FACE_OUTER_BOUND('',#92,.T.);
#76=FACE_OUTER_BOUND('',#94,.T.);
#77=EDGE_LOOP('',(#173,#174,#175,#176));
#78=EDGE_LOOP('',(#177,#178,#179,#180));
#79=EDGE_LOOP('',(#181,#182,#183,#184));
#80=EDGE_LOOP('',(#185,#186,#187,#188));
#81=EDGE_LOOP('',(#189,#190,#191,#192));
#82=EDGE_LOOP('',(#193,#194,#195,#196));
#83=EDGE_LOOP('',(#197,#198,#199,#200));
#84=EDGE_LOOP('',(#201,#202,#203,#204));
#85=EDGE_LOOP('',(#205,#206,#207,#208));
#86=EDGE_LOOP('',(#209,#210,#211,#212,#213));
#87=EDGE_LOOP('',(#214));
#88=EDGE_LOOP('',(#215,#216,#217,#218));
#89=EDGE_LOOP('',(#219,#220,#221,#222));
#90=EDGE_LOOP('',(#223,#224,#225,#226));
#91=EDGE_LOOP('',(#227,#228,#229,#230));
#92=EDGE_LOOP('',(#231,#232,#233,#234,#235));
#93=EDGE_LOOP('',(#236));
#94=EDGE_LOOP('',(#237,#238,#239,#240,#241,#242,#243,#244));
#95=B_SPLINE_CURVE_WITH_KNOTS('',3,(#408,#409,#410,#411,#412,#413,#414,
#415,#416,#417,#418,#419),.UNSPECIFIED.,.F.,.F.,(4,2,2,2,2,4),(0.,0.0390615844467807,
0.0781246827592791,0.117191002995961,0.156529262661932,0.157579493807465),
 .UNSPECIFIED.);
#96=B_SPLINE_CURVE_WITH_KNOTS('',3,(#447,#448,#449,#450,#451,#452,#453,
#454,#455,#456,#457,#458),.UNSPECIFIED.,.F.,.F.,(4,2,2,2,2,4),(0.,0.0390615844467793,
0.078124682759274,0.117191002995956,0.156529262662075,0.157579493807606),
 .UNSPECIFIED.);
#97=CIRCLE('',#280,7.);
#98=CIRCLE('',#281,1.);
#99=CIRCLE('',#282,8.);
#100=CIRCLE('',#284,8.);
#101=CIRCLE('',#285,1.);
#102=CIRCLE('',#286,7.);
#103=CIRCLE('',#288,1.);
#104=CIRCLE('',#290,8.);
#105=CIRCLE('',#292,8.);
#106=CIRCLE('',#294,7.);
#107=CIRCLE('',#295,0.999999999999995);
#108=CIRCLE('',#297,1.);
#109=CIRCLE('',#298,7.);
#110=CIRCLE('',#300,1.);
#111=CIRCLE('',#302,1.);
#112=CIRCLE('',#304,2.5);
#113=CIRCLE('',#306,1.);
#114=CIRCLE('',#310,2.5);
#115=VERTEX_POINT('',#401);
#116=VERTEX_POINT('',#402);
#117=VERTEX_POINT('',#404);
#118=VERTEX_POINT('',#406);
#119=VERTEX_POINT('',#421);
#120=VERTEX_POINT('',#423);
#121=VERTEX_POINT('',#427);
#122=VERTEX_POINT('',#429);
#123=VERTEX_POINT('',#433);
#124=VERTEX_POINT('',#435);
#125=VERTEX_POINT('',#439);
#126=VERTEX_POINT('',#443);
#127=VERTEX_POINT('',#444);
#128=VERTEX_POINT('',#460);
#129=VERTEX_POINT('',#464);
#130=VERTEX_POINT('',#466);
#131=VERTEX_POINT('',#470);
#132=VERTEX_POINT('',#472);
#133=VERTEX_POINT('',#477);
#134=VERTEX_POINT('',#480);
#135=VERTEX_POINT('',#482);
#136=VERTEX_POINT('',#490);
#137=EDGE_CURVE('',#115,#116,#97,.T.);
#138=EDGE_CURVE('',#116,#117,#98,.T.);
#139=EDGE_CURVE('',#117,#118,#99,.T.);
#140=EDGE_CURVE('',#118,#115,#95,.T.);
#141=EDGE_CURVE('',#118,#119,#100,.T.);
#142=EDGE_CURVE('',#119,#120,#101,.T.);
#143=EDGE_CURVE('',#120,#115,#102,.T.);
#144=EDGE_CURVE('',#119,#121,#22,.T.);
#145=EDGE_CURVE('',#121,#122,#103,.T.);
#146=EDGE_CURVE('',#122,#120,#23,.T.);
#147=EDGE_CURVE('',#118,#123,#24,.T.);
#148=EDGE_CURVE('',#124,#123,#104,.T.);
#149=EDGE_CURVE('',#124,#119,#25,.T.);
#150=EDGE_CURVE('',#117,#125,#26,.T.);
#151=EDGE_CURVE('',#123,#125,#105,.T.);
#152=EDGE_CURVE('',#126,#127,#106,.T.);
#153=EDGE_CURVE('',#127,#124,#107,.T.);
#154=EDGE_CURVE('',#123,#126,#96,.T.);
#155=EDGE_CURVE('',#125,#128,#108,.T.);
#156=EDGE_CURVE('',#128,#126,#109,.T.);
#157=EDGE_CURVE('',#127,#129,#27,.T.);
#158=EDGE_CURVE('',#129,#130,#110,.T.);
#159=EDGE_CURVE('',#130,#124,#28,.T.);
#160=EDGE_CURVE('',#116,#131,#29,.T.);
#161=EDGE_CURVE('',#131,#132,#111,.T.);
#162=EDGE_CURVE('',#132,#117,#30,.T.);
#163=EDGE_CURVE('',#131,#122,#31,.T.);
#164=EDGE_CURVE('',#133,#133,#112,.T.);
#165=EDGE_CURVE('',#125,#134,#32,.T.);
#166=EDGE_CURVE('',#134,#135,#113,.T.);
#167=EDGE_CURVE('',#135,#128,#33,.T.);
#168=EDGE_CURVE('',#134,#132,#34,.T.);
#169=EDGE_CURVE('',#121,#130,#35,.T.);
#170=EDGE_CURVE('',#136,#136,#114,.T.);
#171=EDGE_CURVE('',#136,#133,#36,.T.);
#172=EDGE_CURVE('',#129,#135,#37,.T.);
#173=ORIENTED_EDGE('',*,*,#137,.T.);
#174=ORIENTED_EDGE('',*,*,#138,.T.);
#175=ORIENTED_EDGE('',*,*,#139,.T.);
#176=ORIENTED_EDGE('',*,*,#140,.T.);
#177=ORIENTED_EDGE('',*,*,#141,.T.);
#178=ORIENTED_EDGE('',*,*,#142,.T.);
#179=ORIENTED_EDGE('',*,*,#143,.T.);
#180=ORIENTED_EDGE('',*,*,#140,.F.);
#181=ORIENTED_EDGE('',*,*,#142,.F.);
#182=ORIENTED_EDGE('',*,*,#144,.T.);
#183=ORIENTED_EDGE('',*,*,#145,.T.);
#184=ORIENTED_EDGE('',*,*,#146,.T.);
#185=ORIENTED_EDGE('',*,*,#141,.F.);
#186=ORIENTED_EDGE('',*,*,#147,.T.);
#187=ORIENTED_EDGE('',*,*,#148,.F.);
#188=ORIENTED_EDGE('',*,*,#149,.T.);
#189=ORIENTED_EDGE('',*,*,#139,.F.);
#190=ORIENTED_EDGE('',*,*,#150,.T.);
#191=ORIENTED_EDGE('',*,*,#151,.F.);
#192=ORIENTED_EDGE('',*,*,#147,.F.);
#193=ORIENTED_EDGE('',*,*,#152,.T.);
#194=ORIENTED_EDGE('',*,*,#153,.T.);
#195=ORIENTED_EDGE('',*,*,#148,.T.);
#196=ORIENTED_EDGE('',*,*,#154,.T.);
#197=ORIENTED_EDGE('',*,*,#151,.T.);
#198=ORIENTED_EDGE('',*,*,#155,.T.);
#199=ORIENTED_EDGE('',*,*,#156,.T.);
#200=ORIENTED_EDGE('',*,*,#154,.F.);
#201=ORIENTED_EDGE('',*,*,#153,.F.);
#202=ORIENTED_EDGE('',*,*,#157,.T.);
#203=ORIENTED_EDGE('',*,*,#158,.T.);
#204=ORIENTED_EDGE('',*,*,#159,.T.);
#205=ORIENTED_EDGE('',*,*,#138,.F.);
#206=ORIENTED_EDGE('',*,*,#160,.T.);
#207=ORIENTED_EDGE('',*,*,#161,.T.);
#208=ORIENTED_EDGE('',*,*,#162,.T.);
#209=ORIENTED_EDGE('',*,*,#143,.F.);
#210=ORIENTED_EDGE('',*,*,#146,.F.);
#211=ORIENTED_EDGE('',*,*,#163,.F.);
#212=ORIENTED_EDGE('',*,*,#160,.F.);
#213=ORIENTED_EDGE('',*,*,#137,.F.);
#214=ORIENTED_EDGE('',*,*,#164,.T.);
#215=ORIENTED_EDGE('',*,*,#155,.F.);
#216=ORIENTED_EDGE('',*,*,#165,.T.);
#217=ORIENTED_EDGE('',*,*,#166,.T.);
#218=ORIENTED_EDGE('',*,*,#167,.T.);
#219=ORIENTED_EDGE('',*,*,#150,.F.);
#220=ORIENTED_EDGE('',*,*,#162,.F.);
#221=ORIENTED_EDGE('',*,*,#168,.F.);
#222=ORIENTED_EDGE('',*,*,#165,.F.);
#223=ORIENTED_EDGE('',*,*,#144,.F.);
#224=ORIENTED_EDGE('',*,*,#149,.F.);
#225=ORIENTED_EDGE('',*,*,#159,.F.);
#226=ORIENTED_EDGE('',*,*,#169,.F.);
#227=ORIENTED_EDGE('',*,*,#170,.F.);
#228=ORIENTED_EDGE('',*,*,#171,.T.);
#229=ORIENTED_EDGE('',*,*,#164,.F.);
#230=ORIENTED_EDGE('',*,*,#171,.F.);
#231=ORIENTED_EDGE('',*,*,#156,.F.);
#232=ORIENTED_EDGE('',*,*,#167,.F.);
#233=ORIENTED_EDGE('',*,*,#172,.F.);
#234=ORIENTED_EDGE('',*,*,#157,.F.);
#235=ORIENTED_EDGE('',*,*,#152,.F.);
#236=ORIENTED_EDGE('',*,*,#170,.T.);
#237=ORIENTED_EDGE('',*,*,#166,.F.);
#238=ORIENTED_EDGE('',*,*,#168,.T.);
#239=ORIENTED_EDGE('',*,*,#161,.F.);
#240=ORIENTED_EDGE('',*,*,#163,.T.);
#241=ORIENTED_EDGE('',*,*,#145,.F.);
#242=ORIENTED_EDGE('',*,*,#169,.T.);
#243=ORIENTED_EDGE('',*,*,#158,.F.);
#244=ORIENTED_EDGE('',*,*,#172,.T.);
#245=TOROIDAL_SURFACE('',#279,7.,1.);
#246=TOROIDAL_SURFACE('',#283,7.,1.);
#247=TOROIDAL_SURFACE('',#293,7.,1.);
#248=TOROIDAL_SURFACE('',#296,7.,1.);
#249=ADVANCED_FACE('',(#61),#245,.T.);
#250=ADVANCED_FACE('',(#62),#246,.T.);
#251=ADVANCED_FACE('',(#63),#54,.T.);
#252=ADVANCED_FACE('',(#64),#55,.T.);
#253=ADVANCED_FACE('',(#65),#56,.T.);
#254=ADVANCED_FACE('',(#66),#247,.T.);
#255=ADVANCED_FACE('',(#67),#248,.T.);
#256=ADVANCED_FACE('',(#68),#57,.T.);
#257=ADVANCED_FACE('',(#69),#58,.T.);
#258=ADVANCED_FACE('',(#70,#15),#17,.T.);
#259=ADVANCED_FACE('',(#71),#59,.T.);
#260=ADVANCED_FACE('',(#72),#18,.T.);
#261=ADVANCED_FACE('',(#73),#19,.T.);
#262=ADVANCED_FACE('',(#74),#60,.F.);
#263=ADVANCED_FACE('',(#75,#16),#20,.T.);
#264=ADVANCED_FACE('',(#76),#21,.F.);
#265=CLOSED_SHELL('',(#249,#250,#251,#252,#253,#254,#255,#256,#257,#258,
#259,#260,#261,#262,#263,#264));
#266=DERIVED_UNIT_ELEMENT(#268,1.);
#267=DERIVED_UNIT_ELEMENT(#501,-3.);
#268=(
MASS_UNIT()
NAMED_UNIT(*)
SI_UNIT(.KILO.,.GRAM.)
);
#269=DERIVED_UNIT((#266,#267));
#270=MEASURE_REPRESENTATION_ITEM('density measure',
POSITIVE_RATIO_MEASURE(7850.),#269);
#271=PROPERTY_DEFINITION_REPRESENTATION(#276,#273);
#272=PROPERTY_DEFINITION_REPRESENTATION(#277,#274);
#273=REPRESENTATION('material name',(#275),#498);
#274=REPRESENTATION('density',(#270),#498);
#275=DESCRIPTIVE_REPRESENTATION_ITEM('Steel','Steel');
#276=PROPERTY_DEFINITION('material property','material name',#508);
#277=PROPERTY_DEFINITION('material property','density of part',#508);
#278=AXIS2_PLACEMENT_3D('',#399,#313,#314);
#279=AXIS2_PLACEMENT_3D('',#400,#315,#316);
#280=AXIS2_PLACEMENT_3D('',#403,#317,#318);
#281=AXIS2_PLACEMENT_3D('',#405,#319,#320);
#282=AXIS2_PLACEMENT_3D('',#407,#321,#322);
#283=AXIS2_PLACEMENT_3D('',#420,#323,#324);
#284=AXIS2_PLACEMENT_3D('',#422,#325,#326);
#285=AXIS2_PLACEMENT_3D('',#424,#327,#328);
#286=AXIS2_PLACEMENT_3D('',#425,#329,#330);
#287=AXIS2_PLACEMENT_3D('',#426,#331,#332);
#288=AXIS2_PLACEMENT_3D('',#430,#334,#335);
#289=AXIS2_PLACEMENT_3D('',#432,#337,#338);
#290=AXIS2_PLACEMENT_3D('',#436,#340,#341);
#291=AXIS2_PLACEMENT_3D('',#438,#343,#344);
#292=AXIS2_PLACEMENT_3D('',#441,#346,#347);
#293=AXIS2_PLACEMENT_3D('',#442,#348,#349);
#294=AXIS2_PLACEMENT_3D('',#445,#350,#351);
#295=AXIS2_PLACEMENT_3D('',#446,#352,#353);
#296=AXIS2_PLACEMENT_3D('',#459,#354,#355);
#297=AXIS2_PLACEMENT_3D('',#461,#356,#357);
#298=AXIS2_PLACEMENT_3D('',#462,#358,#359);
#299=AXIS2_PLACEMENT_3D('',#463,#360,#361);
#300=AXIS2_PLACEMENT_3D('',#467,#363,#364);
#301=AXIS2_PLACEMENT_3D('',#469,#366,#367);
#302=AXIS2_PLACEMENT_3D('',#473,#369,#370);
#303=AXIS2_PLACEMENT_3D('',#475,#372,#373);
#304=AXIS2_PLACEMENT_3D('',#478,#375,#376);
#305=AXIS2_PLACEMENT_3D('',#479,#377,#378);
#306=AXIS2_PLACEMENT_3D('',#483,#380,#381);
#307=AXIS2_PLACEMENT_3D('',#485,#383,#384);
#308=AXIS2_PLACEMENT_3D('',#487,#386,#387);
#309=AXIS2_PLACEMENT_3D('',#489,#389,#390);
#310=AXIS2_PLACEMENT_3D('',#491,#391,#392);
#311=AXIS2_PLACEMENT_3D('',#493,#394,#395);
#312=AXIS2_PLACEMENT_3D('',#495,#397,#398);
#313=DIRECTION('axis',(0.,0.,1.));
#314=DIRECTION('refdir',(1.,0.,0.));
#315=DIRECTION('center_axis',(-1.,3.51336400197834E-17,0.));
#316=DIRECTION('ref_axis',(0.,0.,1.));
#317=DIRECTION('center_axis',(-1.,3.51336400197834E-17,0.));
#318=DIRECTION('ref_axis',(1.82205000420582E-17,0.518605531103477,0.855013627440452));
#319=DIRECTION('center_axis',(-1.11022302462516E-15,-1.11022302462516E-15,
1.));
#320=DIRECTION('ref_axis',(1.,-1.11022302462516E-15,1.11022302462516E-15));
#321=DIRECTION('center_axis',(1.,-3.51336400197834E-17,0.));
#322=DIRECTION('ref_axis',(1.73472347597681E-17,0.518605531103477,0.855013627440452));
#323=DIRECTION('center_axis',(-1.,3.51336400197834E-17,0.));
#324=DIRECTION('ref_axis',(0.,0.,1.));
#325=DIRECTION('center_axis',(1.,-3.51336400197834E-17,0.));
#326=DIRECTION('ref_axis',(-1.73472347597681E-17,-0.507876501584821,0.861429892178095));
#327=DIRECTION('center_axis',(0.,0.,1.));
#328=DIRECTION('ref_axis',(0.,-1.,0.));
#329=DIRECTION('center_axis',(-1.,3.51336400197834E-17,0.));
#330=DIRECTION('ref_axis',(-1.78435501811881E-17,-0.507876501584821,0.861429892178095));
#331=DIRECTION('center_axis',(0.,0.,1.));
#332=DIRECTION('ref_axis',(0.707106781186548,-0.707106781186547,0.));
#333=DIRECTION('',(0.,0.,-1.));
#334=DIRECTION('center_axis',(0.,0.,1.));
#335=DIRECTION('ref_axis',(0.707106781186548,-0.707106781186547,0.));
#336=DIRECTION('',(0.,0.,1.));
#337=DIRECTION('center_axis',(1.,0.,0.));
#338=DIRECTION('ref_axis',(0.,-0.707106781186548,0.707106781186547));
#339=DIRECTION('',(-1.,0.,0.));
#340=DIRECTION('center_axis',(-1.,-6.32405520356102E-16,0.));
#341=DIRECTION('ref_axis',(3.29597460435593E-16,-0.507876501584821,0.861429892178095));
#342=DIRECTION('',(1.,0.,0.));
#343=DIRECTION('center_axis',(-1.,0.,0.));
#344=DIRECTION('ref_axis',(0.,0.0249999999999999,0.99968745115661));
#345=DIRECTION('',(-1.,0.,0.));
#346=DIRECTION('center_axis',(-1.,-6.32405520356102E-16,0.));
#347=DIRECTION('ref_axis',(-3.29597460435593E-16,0.518605531103477,0.855013627440453));
#348=DIRECTION('center_axis',(1.,6.32405520356102E-16,0.));
#349=DIRECTION('ref_axis',(0.,0.,-1.));
#350=DIRECTION('center_axis',(1.,6.32405520356102E-16,0.));
#351=DIRECTION('ref_axis',(3.21183903261385E-16,-0.507876501584821,0.861429892178095));
#352=DIRECTION('center_axis',(0.,0.,1.));
#353=DIRECTION('ref_axis',(-1.,-1.11022302462516E-15,0.));
#354=DIRECTION('center_axis',(1.,6.32405520356102E-16,0.));
#355=DIRECTION('ref_axis',(0.,0.,-1.));
#356=DIRECTION('center_axis',(-2.22044604925033E-15,2.22044604925032E-15,
1.));
#357=DIRECTION('ref_axis',(4.85722573273506E-15,1.,-2.22044604925031E-15));
#358=DIRECTION('center_axis',(1.,6.32405520356102E-16,0.));
#359=DIRECTION('ref_axis',(-3.27969000757047E-16,0.518605531103477,0.855013627440453));
#360=DIRECTION('center_axis',(0.,0.,1.));
#361=DIRECTION('ref_axis',(-0.707106781186547,-0.707106781186548,0.));
#362=DIRECTION('',(0.,0.,-1.));
#363=DIRECTION('center_axis',(0.,0.,1.));
#364=DIRECTION('ref_axis',(-0.707106781186547,-0.707106781186548,0.));
#365=DIRECTION('',(0.,0.,1.));
#366=DIRECTION('center_axis',(0.,0.,1.));
#367=DIRECTION('ref_axis',(0.707106781186547,0.707106781186548,0.));
#368=DIRECTION('',(0.,0.,-1.));
#369=DIRECTION('center_axis',(0.,0.,1.));
#370=DIRECTION('ref_axis',(0.707106781186547,0.707106781186548,0.));
#371=DIRECTION('',(0.,0.,1.));
#372=DIRECTION('center_axis',(1.,-3.51336400197834E-17,0.));
#373=DIRECTION('ref_axis',(3.51336400197834E-17,1.,0.));
#374=DIRECTION('',(-3.51336400197834E-17,-1.,0.));
#375=DIRECTION('center_axis',(-1.,3.51336400197834E-17,0.));
#376=DIRECTION('ref_axis',(4.64806290213881E-16,-1.,0.));
#377=DIRECTION('center_axis',(0.,0.,1.));
#378=DIRECTION('ref_axis',(-0.707106781186548,0.707106781186547,0.));
#379=DIRECTION('',(0.,0.,-1.));
#380=DIRECTION('center_axis',(0.,0.,1.));
#381=DIRECTION('ref_axis',(-0.707106781186548,0.707106781186547,0.));
#382=DIRECTION('',(0.,0.,1.));
#383=DIRECTION('center_axis',(0.,1.,0.));
#384=DIRECTION('ref_axis',(-1.,0.,0.));
#385=DIRECTION('',(1.,0.,0.));
#386=DIRECTION('center_axis',(0.,-1.,0.));
#387=DIRECTION('ref_axis',(1.,0.,0.));
#388=DIRECTION('',(-1.,0.,0.));
#389=DIRECTION('center_axis',(1.,4.64806290213881E-16,0.));
#390=DIRECTION('ref_axis',(4.64806290213881E-16,-1.,0.));
#391=DIRECTION('center_axis',(1.,6.32405520356102E-16,0.));
#392=DIRECTION('ref_axis',(4.64806290213881E-16,-1.,0.));
#393=DIRECTION('',(1.,4.64806290213881E-16,0.));
#394=DIRECTION('center_axis',(-1.,-6.32405520356102E-16,0.));
#395=DIRECTION('ref_axis',(6.32405520356102E-16,-1.,0.));
#396=DIRECTION('',(-6.32405520356102E-16,1.,0.));
#397=DIRECTION('center_axis',(0.,0.,1.));
#398=DIRECTION('ref_axis',(1.,0.,0.));
#399=CARTESIAN_POINT('',(0.,0.,0.));
#400=CARTESIAN_POINT('Origin',(0.899999999999997,-0.0999999999999879,6.00250039074712));
#401=CARTESIAN_POINT('',(1.9,0.0874955152444823,12.9999888996168));
#402=CARTESIAN_POINT('',(1.9,6.90000000000001,6.00250039074712));
#403=CARTESIAN_POINT('Origin',(1.9,-0.0999999999999879,6.00250039074712));
#404=CARTESIAN_POINT('',(0.899999999999998,7.90000000000001,6.00250039074712));
#405=CARTESIAN_POINT('Origin',(0.899999999999997,6.90000000000001,6.00250039074712));
#406=CARTESIAN_POINT('',(0.899999999999997,0.100000000000011,14.));
#407=CARTESIAN_POINT('Origin',(0.899999999999997,-0.0999999999999879,6.00250039074712));
#408=CARTESIAN_POINT('Ctrl Pts',(0.899999999999997,0.100000000000038,14.));
#409=CARTESIAN_POINT('Ctrl Pts',(1.03020528148927,0.100000000000038,14.));
#410=CARTESIAN_POINT('Ctrl Pts',(1.15916519924312,0.0996820739939674,13.9745698942117));
#411=CARTESIAN_POINT('Ctrl Pts',(1.4000838746156,0.0984461482106923,13.8757112830376));
#412=CARTESIAN_POINT('Ctrl Pts',(1.50973775895171,0.0975399465173619,13.8032264768633));
#413=CARTESIAN_POINT('Ctrl Pts',(1.69509737555014,0.095253033726357,13.6203020444625));
#414=CARTESIAN_POINT('Ctrl Pts',(1.76902779788217,0.0938941530757374,13.5116085810723));
#415=CARTESIAN_POINT('Ctrl Pts',(1.87141930942527,0.0908882066269115,13.2711704453748));
#416=CARTESIAN_POINT('Ctrl Pts',(1.89856801730805,0.0892683325141217,13.141600767484));
#417=CARTESIAN_POINT('Ctrl Pts',(1.89998162050538,0.0875854328573389,13.0069898349834));
#418=CARTESIAN_POINT('Ctrl Pts',(1.89999999988037,0.0875416703503518,13.0034893814885));
#419=CARTESIAN_POINT('Ctrl Pts',(1.9,0.0874979071140928,12.9999888697138));
#420=CARTESIAN_POINT('Origin',(0.899999999999997,0.100000000000011,6.));
#421=CARTESIAN_POINT('',(0.899999999999997,-7.89999999999999,6.));
#422=CARTESIAN_POINT('Origin',(0.899999999999997,0.100000000000011,6.));
#423=CARTESIAN_POINT('',(1.9,-6.89999999999999,6.));
#424=CARTESIAN_POINT('Origin',(0.899999999999997,-6.89999999999999,6.));
#425=CARTESIAN_POINT('Origin',(1.9,0.100000000000011,6.));
#426=CARTESIAN_POINT('Origin',(0.899999999999997,-6.89999999999999,0.));
#427=CARTESIAN_POINT('',(0.899999999999997,-7.89999999999999,0.));
#428=CARTESIAN_POINT('',(0.899999999999997,-7.89999999999999,0.));
#429=CARTESIAN_POINT('',(1.9,-6.89999999999999,0.));
#430=CARTESIAN_POINT('Origin',(0.899999999999997,-6.89999999999999,0.));
#431=CARTESIAN_POINT('',(1.9,-6.89999999999999,0.));
#432=CARTESIAN_POINT('Origin',(-0.949999999999998,0.100000000000011,6.));
#433=CARTESIAN_POINT('',(-0.900000000000003,0.100000000000011,14.));
#434=CARTESIAN_POINT('',(-0.949999999999998,0.100000000000011,14.));
#435=CARTESIAN_POINT('',(-0.899999999999993,-7.89999999999999,6.));
#436=CARTESIAN_POINT('Origin',(-0.900000000000002,0.100000000000011,6.));
#437=CARTESIAN_POINT('',(-0.949999999999998,-7.89999999999999,6.));
#438=CARTESIAN_POINT('Origin',(-0.949999999999998,-0.0999999999999879,6.00250039074712));
#439=CARTESIAN_POINT('',(-0.900000000000002,7.90000000000001,6.00250039074712));
#440=CARTESIAN_POINT('',(-0.949999999999998,7.90000000000001,6.00250039074712));
#441=CARTESIAN_POINT('Origin',(-0.900000000000002,-0.0999999999999879,6.00250039074712));
#442=CARTESIAN_POINT('Origin',(-0.900000000000002,0.100000000000011,6.));
#443=CARTESIAN_POINT('',(-1.9,0.0875002989837126,12.9999888398107));
#444=CARTESIAN_POINT('',(-1.89999999999999,-6.89999999999999,6.));
#445=CARTESIAN_POINT('Origin',(-1.9,0.100000000000011,6.));
#446=CARTESIAN_POINT('Origin',(-0.899999999999998,-6.89999999999999,6.));
#447=CARTESIAN_POINT('Ctrl Pts',(-0.900000000000002,0.100000000000048,14.));
#448=CARTESIAN_POINT('Ctrl Pts',(-1.03020528148927,0.100000000000048,14.));
#449=CARTESIAN_POINT('Ctrl Pts',(-1.15916519924312,0.0996820739939745,13.9745698942117));
#450=CARTESIAN_POINT('Ctrl Pts',(-1.40008387461562,0.0984461482107205,13.8757112830376));
#451=CARTESIAN_POINT('Ctrl Pts',(-1.50973775895173,0.0975399465174415,13.8032264768633));
#452=CARTESIAN_POINT('Ctrl Pts',(-1.69509737555015,0.0952530337264395,13.6203020444625));
#453=CARTESIAN_POINT('Ctrl Pts',(-1.76902779788218,0.0938941530756873,13.5116085810723));
#454=CARTESIAN_POINT('Ctrl Pts',(-1.87141930942547,0.0908882066269057,13.2711704453743));
#455=CARTESIAN_POINT('Ctrl Pts',(-1.8985680173081,0.0892683325046606,13.1416007674818));
#456=CARTESIAN_POINT('Ctrl Pts',(-1.89998162050539,0.0875854328585116,13.0069898349833));
#457=CARTESIAN_POINT('Ctrl Pts',(-1.89999999988038,0.087541670350315,13.0034893814884));
#458=CARTESIAN_POINT('Ctrl Pts',(-1.9,0.0874979071140571,12.9999888697138));
#459=CARTESIAN_POINT('Origin',(-0.900000000000002,-0.0999999999999879,6.00250039074712));
#460=CARTESIAN_POINT('',(-1.9,6.90000000000001,6.00250039074712));
#461=CARTESIAN_POINT('Origin',(-0.900000000000007,6.90000000000001,6.00250039074712));
#462=CARTESIAN_POINT('Origin',(-1.9,-0.0999999999999885,6.00250039074712));
#463=CARTESIAN_POINT('Origin',(-0.899999999999993,-6.89999999999999,0.));
#464=CARTESIAN_POINT('',(-1.89999999999999,-6.89999999999999,0.));
#465=CARTESIAN_POINT('',(-1.89999999999999,-6.89999999999999,0.));
#466=CARTESIAN_POINT('',(-0.899999999999993,-7.89999999999999,0.));
#467=CARTESIAN_POINT('Origin',(-0.899999999999993,-6.89999999999999,0.));
#468=CARTESIAN_POINT('',(-0.899999999999993,-7.89999999999999,0.));
#469=CARTESIAN_POINT('Origin',(0.899999999999998,6.90000000000001,0.));
#470=CARTESIAN_POINT('',(1.9,6.90000000000001,0.));
#471=CARTESIAN_POINT('',(1.9,6.90000000000001,0.));
#472=CARTESIAN_POINT('',(0.899999999999998,7.90000000000001,0.));
#473=CARTESIAN_POINT('Origin',(0.899999999999998,6.90000000000001,0.));
#474=CARTESIAN_POINT('',(0.899999999999998,7.90000000000001,0.));
#475=CARTESIAN_POINT('Origin',(1.9,-7.89999999999999,0.));
#476=CARTESIAN_POINT('',(1.9,7.90000000000001,0.));
#477=CARTESIAN_POINT('',(1.89999999999999,2.5,7.3));
#478=CARTESIAN_POINT('Origin',(1.89999999999999,8.23364838781808E-16,7.3));
#479=CARTESIAN_POINT('Origin',(-0.900000000000002,6.90000000000001,0.));
#480=CARTESIAN_POINT('',(-0.900000000000002,7.90000000000001,0.));
#481=CARTESIAN_POINT('',(-0.900000000000002,7.90000000000001,0.));
#482=CARTESIAN_POINT('',(-1.9,6.90000000000001,0.));
#483=CARTESIAN_POINT('Origin',(-0.900000000000002,6.90000000000001,0.));
#484=CARTESIAN_POINT('',(-1.9,6.90000000000001,0.));
#485=CARTESIAN_POINT('Origin',(1.9,7.90000000000001,0.));
#486=CARTESIAN_POINT('',(-1.9,7.90000000000001,0.));
#487=CARTESIAN_POINT('Origin',(-1.89999999999999,-7.89999999999999,0.));
#488=CARTESIAN_POINT('',(1.9,-7.89999999999999,0.));
#489=CARTESIAN_POINT('Origin',(-1.9,-9.42899064030937E-16,7.3));
#490=CARTESIAN_POINT('',(-1.9,2.5,7.3));
#491=CARTESIAN_POINT('Origin',(-1.9,-9.42899064030937E-16,7.3));
#492=CARTESIAN_POINT('',(-1.9,2.5,7.3));
#493=CARTESIAN_POINT('Origin',(-1.9,7.90000000000001,0.));
#494=CARTESIAN_POINT('',(-1.89999999999999,-7.89999999999999,0.));
#495=CARTESIAN_POINT('Origin',(-2.4980018054066E-15,1.11022302462516E-14,
0.));
#496=UNCERTAINTY_MEASURE_WITH_UNIT(LENGTH_MEASURE(0.01),#500,
'DISTANCE_ACCURACY_VALUE',
'Maximum model space distance between geometric entities at asserted c
onnectivities');
#497=UNCERTAINTY_MEASURE_WITH_UNIT(LENGTH_MEASURE(0.01),#500,
'DISTANCE_ACCURACY_VALUE',
'Maximum model space distance between geometric entities at asserted c
onnectivities');
#498=(
GEOMETRIC_REPRESENTATION_CONTEXT(3)
GLOBAL_UNCERTAINTY_ASSIGNED_CONTEXT((#496))
GLOBAL_UNIT_ASSIGNED_CONTEXT((#500,#502,#503))
REPRESENTATION_CONTEXT('','3D')
);
#499=(
GEOMETRIC_REPRESENTATION_CONTEXT(3)
GLOBAL_UNCERTAINTY_ASSIGNED_CONTEXT((#497))
GLOBAL_UNIT_ASSIGNED_CONTEXT((#500,#502,#503))
REPRESENTATION_CONTEXT('','3D')
);
#500=(
LENGTH_UNIT()
NAMED_UNIT(*)
SI_UNIT(.MILLI.,.METRE.)
);
#501=(
LENGTH_UNIT()
NAMED_UNIT(*)
SI_UNIT($,.METRE.)
);
#502=(
NAMED_UNIT(*)
PLANE_ANGLE_UNIT()
SI_UNIT($,.RADIAN.)
);
#503=(
NAMED_UNIT(*)
SI_UNIT($,.STERADIAN.)
SOLID_ANGLE_UNIT()
);
#504=SHAPE_DEFINITION_REPRESENTATION(#505,#506);
#505=PRODUCT_DEFINITION_SHAPE('',$,#508);
#506=SHAPE_REPRESENTATION('',(#278),#498);
#507=PRODUCT_DEFINITION_CONTEXT('part definition',#512,'design');
#508=PRODUCT_DEFINITION('Slipring mount v1.1.1',
'Slipring mount v1.1.1 v2',#509,#507);
#509=PRODUCT_DEFINITION_FORMATION('',$,#514);
#510=PRODUCT_RELATED_PRODUCT_CATEGORY('Slipring mount v1.1.1 v2',
'Slipring mount v1.1.1 v2',(#514));
#511=APPLICATION_PROTOCOL_DEFINITION('international standard',
'automotive_design',2009,#512);
#512=APPLICATION_CONTEXT(
'Core Data for Automotive Mechanical Design Process');
#513=PRODUCT_CONTEXT('part definition',#512,'mechanical');
#514=PRODUCT('Slipring mount v1.1.1','Slipring mount v1.1.1 v2',$,(#513));
#515=PRESENTATION_STYLE_ASSIGNMENT((#516));
#516=SURFACE_STYLE_USAGE(.BOTH.,#517);
#517=SURFACE_SIDE_STYLE('',(#518));
#518=SURFACE_STYLE_FILL_AREA(#519);
#519=FILL_AREA_STYLE('Steel - Satin',(#520));
#520=FILL_AREA_STYLE_COLOUR('Steel - Satin',#521);
#521=COLOUR_RGB('Steel - Satin',0.627450980392157,0.627450980392157,0.627450980392157);
ENDSEC;
END-ISO-10303-21;
